# xmcd
#
# Track frame offsets:
#	150
#	14245
#	21317
#	34542
#	38520
#	57660
#	63900
#	74480
#	78122
#	92285
#	95897
#	108265
#	117090
#	130032
#	137505
#	146882
#	155245
#	172265
#	178272
#	195675
#	198267
#	209877
#	217870
#	234597
#	238447
#	253735
#	259500
#	274447
#	281770
#	298475
#	302827
#	318470
#	319540
#
# Disc length: 4438 seconds
# Revision: 5
# Processed by: cddbd v1.5.2PL0 Copyright (c) Steve Scherf et al.
# Submitted via: dBpowerAMP V12.0
#
DISCID=0b115421
DTITLE=Kenny Rogers - Live By Request
DYEAR=2001
DGENRE=Country
TTITLE0=Islands in the Stream
TTITLE1=Request
TTITLE2=Daytime Friends
TTITLE3=Request
TTITLE4=She Believes in Me
TTITLE5=Request
TTITLE6=Ruby, Don't Take Your Love to Town
TTITLE7=Request
TTITLE8=Love Will Turn You Around
TTITLE9=Request
TTITLE10=The Greatest
TTITLE11=Request
TTITLE12=Love or Something Like It
TTITLE13=Request
TTITLE14=Through the Years
TTITLE15=Request
TTITLE16=Lucille
TTITLE17=Request
TTITLE18=Don't Fall in Love With a Dreamer
TTITLE19=Request
TTITLE20=Coward of the County
TTITLE21=Request
TTITLE22=Lady
TTITLE23=Request
TTITLE24=Crazy
TTITLE25=Request
TTITLE26=The Gambler
TTITLE27=Request
TTITLE28=We've Got Tonight
TTITLE29=Request
TTITLE30=You Decorated My Life
TTITLE31=Request
TTITLE32=Slow Dance More
EXTD=
EXTT0=
EXTT1=
EXTT2=
EXTT3=
EXTT4=
EXTT5=
EXTT6=
EXTT7=
EXTT8=
EXTT9=
EXTT10=
EXTT11=
EXTT12=
EXTT13=
EXTT14=
EXTT15=
EXTT16=
EXTT17=
EXTT18=
EXTT19=
EXTT20=
EXTT21=
EXTT22=
EXTT23=
EXTT24=
EXTT25=
EXTT26=
EXTT27=
EXTT28=
EXTT29=
EXTT30=
EXTT31=
EXTT32=
PLAYORDER=
